<svg width="3768" height="467" viewBox="0 0 3768 467" fill="none" xmlns="http://www.w3.org/2000/svg">
<path d="M3768 0V467L0 467V224.946C73.963 148.162 160.399 82.5807 256.438 30.9474L314 0.000243863V224.946C387.963 148.162 474.399 82.5808 570.438 30.9474L628 0.000243863V224.946C701.963 148.162 788.399 82.5808 884.438 30.9474L942 0.000243863V224.946C1015.96 148.162 1102.4 82.5808 1198.44 30.9474L1256 0.000243863V224.946C1329.96 148.161 1416.4 82.5806 1512.44 30.9472L1570 0V224.946C1643.96 148.161 1730.4 82.5803 1826.44 30.9472L1884 0V224.946C1957.96 148.161 2044.4 82.5803 2140.44 30.9472L2198 0V224.946C2271.96 148.161 2358.4 82.5803 2454.44 30.9472L2512 0V224.946C2585.96 148.161 2672.4 82.5803 2768.44 30.9472L2826 0V224.946C2899.96 148.161 2986.4 82.5803 3082.44 30.9472L3140 0V224.946C3213.96 148.161 3300.4 82.5803 3396.44 30.9472L3454 0V224.946C3527.96 148.161 3614.4 82.5803 3710.44 30.9472L3768 0Z" fill="#FD4E2B"/>
</svg>
