<svg width="3768" height="467" viewBox="0 0 3768 467" fill="none" xmlns="http://www.w3.org/2000/svg">
<path d="M1837.56 77.6496L1884 3.05176e-05L1931.04 78.4984C2016.47 221.044 2223.03 221.044 2308.46 78.4984L2355.5 3.05176e-05L2402.55 78.4984C2487.97 221.044 2694.53 221.044 2779.96 78.4984L2827 3.05176e-05L2873.44 77.6497C2958.83 220.431 3165.68 220.431 3251.07 77.6497L3297.5 3.05176e-05L3343.94 77.6496C3429.32 220.431 3636.18 220.431 3721.56 77.6496L3768 3.05176e-05V467H1884H0V3.05176e-05L47.0436 78.4984C132.47 221.044 339.032 221.044 424.458 78.4984L471.502 3.05176e-05L518.545 78.4984C603.972 221.044 810.533 221.044 895.96 78.4984L943.003 3.05176e-05L989.439 77.6497C1074.83 220.431 1281.68 220.431 1367.07 77.6497L1413.5 3.05176e-05L1459.94 77.6496C1545.32 220.431 1752.18 220.431 1837.56 77.6496Z" fill="#FD4E2B"/>
</svg>
