<svg width="1336" height="105" viewBox="0 0 1336 105" fill="none" xmlns="http://www.w3.org/2000/svg">
<path d="M168.534 0.848145H0V21.0356H50.6861V104.624H70.9605V21.0356H113.852V21.0729H168.534C177.894 21.0729 184.044 23.9579 187.806 27.6335C191.59 31.3317 193.82 36.6637 193.82 43.1936C193.82 49.7236 191.59 55.0556 187.806 58.7537C184.044 62.4293 177.894 65.3144 168.534 65.3144H103.927L110.084 104.624H130.559L127.57 85.5391H168.534C182.216 85.5391 193.766 81.2086 201.944 73.2181C210.099 65.2501 214.049 54.4655 214.049 43.1936C214.049 31.9217 210.099 21.1372 201.944 13.1692C193.766 5.17869 182.216 0.848145 168.534 0.848145Z" fill="black"/>
<path d="M218.827 104.624L231.668 0.848145L252.045 0.848145L243.21 72.251L309.187 0.848145L323.482 0.848145V104.624H303.259V37.0569L240.827 104.624H218.827Z" fill="black"/>
<path d="M945.204 104.624V42.528C945.204 19.5312 963.856 0.88856 986.865 0.88856H1007.06C1030.07 0.88856 1048.73 19.5312 1048.73 42.528V84.1676H1048.84L1091.15 0.848145H1103.74L1141.74 82.001L1150.57 65.2405H1195.8C1205.15 65.2405 1211.29 62.3605 1215.05 58.6915C1218.83 54.9999 1221.05 49.6773 1221.05 43.159C1221.05 36.6406 1218.83 31.318 1215.05 27.6264C1211.29 23.9574 1205.15 21.0774 1195.8 21.0774H1141.2V0.88856H1195.8C1209.46 0.88856 1221 5.21142 1229.16 13.1878C1237.31 21.1416 1241.25 31.907 1241.25 43.159C1241.25 54.4109 1237.31 65.1763 1229.16 73.1301C1221 81.1065 1209.46 85.4294 1195.8 85.4294H1162.76L1152.64 104.624H1130.03L1096.96 34.0107L1061.24 104.356H1028.53V42.528C1028.53 30.6812 1018.92 21.0774 1007.06 21.0774H986.865C975.012 21.0774 965.403 30.6812 965.403 42.528V104.624H945.204Z" fill="black"/>
<path d="M1221.75 104.624L1305.58 0.848145H1318.94L1336 104.624H1315.53L1304.06 34.863L1247.71 104.624H1221.75Z" fill="black"/>
<path d="M452.205 0.848145V20.7151H400.57C388.745 20.7151 379.16 30.3035 379.16 42.1314V62.288C379.16 74.1159 388.745 83.7043 400.57 83.7043H453.407L492.94 0.848145H505.765L547.808 83.7043H547.921V42.1314C547.921 20.8405 563.921 3.28772 584.55 0.848145H614.563C635.192 3.28772 651.192 20.8405 651.192 42.1314V103.689H631.042V42.1314C631.042 30.3035 621.456 20.7151 609.632 20.7151H589.481C577.657 20.7151 568.071 30.3035 568.071 42.1314V103.689H535.352L499.711 33.452L466.199 103.689H396.768C375.596 101.769 359.009 83.9661 359.009 62.288V42.1314C359.009 20.8405 375.009 3.28772 395.638 0.848145H452.205Z" fill="black"/>
<path fill-rule="evenodd" clip-rule="evenodd" d="M708.062 103.689H700.452C679.188 101.764 662.527 83.8851 662.527 62.1132V43.5974C662.527 21.5257 679.136 3.33457 700.535 0.848145H710.587C734.212 3.58735 751.554 25.3681 748.163 49.571L745.594 67.9075C742.883 87.2563 727.186 101.955 708.062 103.689ZM682.677 43.5974C682.677 30.9599 692.919 20.7151 705.553 20.7151C719.449 20.7151 730.136 33.0073 728.207 46.7734L725.638 65.1099C724.144 75.7723 715.026 83.7043 704.262 83.7043C692.341 83.7043 682.677 74.0376 682.677 62.1132V43.5974Z" fill="black"/>
<path d="M773.142 103.689H752.799L767.059 0.848145H908.742V103.689H888.591V35.7584L823.65 103.689H795.769L875.091 20.7151H784.648L773.142 103.689Z" fill="black"/>
</svg>
