<svg width="102" height="64" viewBox="0 0 102 64" fill="none" xmlns="http://www.w3.org/2000/svg">
<path d="M31.2702 0H0.127182V3.78255H9.49336V19.4447H13.2398V3.78255H21.1657V3.78953H31.2702C32.9998 3.78953 34.1362 4.33012 34.8314 5.01882C35.5308 5.71174 35.9427 6.71081 35.9427 7.93433C35.9427 9.15786 35.5308 10.1569 34.8314 10.8499C34.1362 11.5386 32.9998 12.0791 31.2702 12.0791H19.3317L20.4693 19.4447H24.2529L23.7006 15.8687H31.2702C33.7985 15.8687 35.9329 15.0572 37.444 13.5601C38.951 12.0671 39.6808 10.0464 39.6808 7.93433C39.6808 5.8223 38.951 3.80158 37.444 2.30861C35.9329 0.81142 33.7985 0 31.2702 0Z" fill="black"/>
<path d="M40.5637 19.4447L42.9366 0L46.7021 0L45.0695 13.3789L57.2611 0L59.9027 0V19.4447H56.1657V6.78448L44.629 19.4447H40.5637Z" fill="black"/>
<path d="M17.2921 22.4064V26.1379H7.71134C5.51738 26.1379 3.73883 27.9388 3.73883 30.1604V33.9462C3.73883 36.1678 5.51738 37.9687 7.71134 37.9687H17.515L24.8501 22.4064H27.2298L35.0307 37.9687H35.0515V30.1604C35.0515 26.1615 38.0203 22.8646 41.8479 22.4064H47.4168C51.2443 22.8646 54.2131 26.1615 54.2131 30.1604V41.7223H50.4742V30.1604C50.4742 27.9388 48.6957 26.1379 46.5017 26.1379H42.7629C40.5689 26.1379 38.7904 27.9388 38.7904 30.1604V41.7223H32.7194L26.1066 28.5302L19.8885 41.7223H7.00595C3.0777 41.3616 0 38.0179 0 33.9462V30.1604C0 26.1615 2.96875 22.8646 6.79631 22.4064H17.2921Z" fill="black"/>
<path fill-rule="evenodd" clip-rule="evenodd" d="M64.765 41.7223H63.353C59.4076 41.3608 56.3162 38.0027 56.3162 33.9134V30.4357C56.3162 26.2902 59.398 22.8734 63.3683 22.4064H65.2335C69.617 22.9209 72.8346 27.0118 72.2054 31.5577L71.7287 35.0017C71.2257 38.6358 68.3134 41.3966 64.765 41.7223ZM60.055 30.4357C60.055 28.0621 61.9553 26.1379 64.2994 26.1379C66.8778 26.1379 68.8607 28.4467 68.5028 31.0322L68.0261 34.4763C67.7489 36.4789 66.057 37.9687 64.0599 37.9687C61.8481 37.9687 60.055 36.1531 60.055 33.9134V30.4357Z" fill="black"/>
<path d="M76.8402 41.7223H73.0656L75.7116 22.4064H102V41.7223H98.2612V28.9634L86.2117 41.7223H81.0386L95.7563 26.1379H78.9751L76.8402 41.7223Z" fill="black"/>
<path d="M0 64V52.365C0 48.056 3.45491 44.5629 7.71677 44.5629H11.4582C15.7201 44.5629 19.175 48.056 19.175 52.365V60.167H19.1958L27.0333 44.5553H29.3643L36.403 59.7611L38.0396 56.6206H46.4175C48.1488 56.6206 49.2862 56.081 49.982 55.3935C50.682 54.7018 51.0944 53.7045 51.0944 52.4832C51.0944 51.2618 50.682 50.2645 49.982 49.5728C49.2862 48.8853 48.1488 48.3457 46.4175 48.3457H36.3039V44.5629H46.4175C48.9481 44.5629 51.0845 45.3729 52.597 46.8674C54.1053 48.3577 54.8358 50.3749 54.8358 52.4832C54.8358 54.5915 54.1053 56.6086 52.597 58.0989C51.0845 59.5935 48.9481 60.4034 46.4175 60.4034H40.2973L38.423 64H34.2343L28.1097 50.769L21.4926 63.9498H15.4335V52.365C15.4335 50.1452 13.6537 48.3457 11.4582 48.3457H7.71677C5.52127 48.3457 3.74146 50.1452 3.74146 52.365V64H0Z" fill="black"/>
<path d="M51.2234 64L66.7507 44.5553H69.2258L72.3858 64H68.5942L66.47 50.9287L56.032 64H51.2234Z" fill="black"/>
</svg>
