<svg width="497" height="231" viewBox="0 0 497 231" fill="none" xmlns="http://www.w3.org/2000/svg">
<path d="M0 67.816C0 68.9126 0.438667 70.0093 1.316 71.106C2.19333 71.9833 3.29 72.422 4.606 72.422H128.907C131.32 72.422 133.184 73.08 134.5 74.396C135.816 75.712 136.474 77.2473 136.474 79.002C136.474 80.976 135.816 82.621 134.5 83.937C133.184 85.253 131.32 85.911 128.907 85.911H4.606C3.29 85.911 2.19333 86.3496 1.316 87.227C0.438667 88.1043 0 89.201 0 90.517V141.183C0 142.499 0.438667 143.596 1.316 144.473C2.19333 145.35 3.29 145.789 4.606 145.789H128.907C131.32 145.789 133.184 146.447 134.5 147.763C135.816 149.079 136.474 150.724 136.474 152.698C136.474 154.453 135.816 156.098 134.5 157.633C133.184 158.949 131.32 159.607 128.907 159.607H4.606C3.29 159.607 2.19333 160.046 1.316 160.923C0.438667 161.8 0 162.897 0 164.213V226.394C0 227.71 0.438667 228.807 1.316 229.684C2.19333 230.561 3.29 231 4.606 231H146.015C159.394 231 171.677 227.71 182.863 221.13C194.268 214.55 203.261 205.667 209.841 194.481C216.64 183.076 220.04 170.793 220.04 157.633C220.04 140.744 214.557 125.391 203.59 111.573C210.17 100.168 213.46 87.885 213.46 74.725C213.46 61.3456 210.06 49.063 203.261 37.877C196.681 26.4716 187.688 17.479 176.283 10.899C164.878 4.09962 152.485 0.699951 139.106 0.699951H4.606C3.29 0.699951 2.19333 1.24829 1.316 2.34496C0.438667 3.22229 0 4.20929 0 5.30595V67.816Z" fill="white"/>
<path d="M317.612 0.699951C304.013 0.699951 291.401 4.09962 279.777 10.899C268.371 17.479 259.269 26.4716 252.47 37.877C245.89 49.063 242.6 61.3456 242.6 74.725C242.6 88.1043 245.999 100.387 252.799 111.573C247.535 117.934 243.477 125.062 240.626 132.958C237.774 140.854 236.349 149.079 236.349 157.633C236.349 170.793 239.639 183.076 246.219 194.481C253.018 205.667 262.011 214.55 273.197 221.13C284.602 227.71 296.994 231 310.374 231H422.736C436.115 231 448.398 227.71 459.584 221.13C470.989 214.55 479.982 205.667 486.562 194.481C493.361 183.076 496.761 170.793 496.761 157.633C496.761 149.079 495.335 140.854 492.484 132.958C489.852 125.062 485.904 117.934 480.64 111.573C487.22 100.168 490.51 87.885 490.51 74.725C490.51 61.3456 487.11 49.063 480.311 37.877C473.731 26.4716 464.628 17.479 453.004 10.899C441.598 4.09962 429.206 0.699951 415.827 0.699951H317.612ZM332.417 90.188C329.346 90.188 326.824 89.4203 324.85 87.885C323.095 86.3496 322.218 84.0466 322.218 80.976C322.218 78.1246 323.205 76.041 325.179 74.725C327.153 73.1896 329.565 72.422 332.417 72.422H401.351C404.202 72.422 406.615 73.1896 408.589 74.725C410.782 76.041 411.879 78.1246 411.879 80.976C411.879 84.0466 410.892 86.3496 408.918 87.885C406.944 89.4203 404.421 90.188 401.351 90.188H332.417ZM332.417 159.278C329.346 159.278 326.824 158.51 324.85 156.975C323.095 155.44 322.218 153.137 322.218 150.066C322.218 147.215 323.205 145.131 325.179 143.815C327.153 142.28 329.565 141.512 332.417 141.512H401.351C404.202 141.512 406.615 142.28 408.589 143.815C410.782 145.131 411.879 147.215 411.879 150.066C411.879 153.137 410.892 155.44 408.918 156.975C406.944 158.51 404.421 159.278 401.351 159.278H332.417Z" fill="white"/>
</svg>
