<svg width="496" height="231" viewBox="0 0 496 231" fill="none" xmlns="http://www.w3.org/2000/svg">
<path d="M240.17 84.882C241.486 84.882 242.583 85.3207 243.46 86.198C244.337 87.0753 244.776 88.172 244.776 89.488V147.063C244.776 148.379 244.337 149.476 243.46 150.353C242.583 151.23 241.486 151.669 240.17 151.669H227.339C226.242 151.669 225.146 152.108 224.049 152.985C223.172 153.862 222.733 154.959 222.733 156.275V225.694C222.733 227.01 222.294 228.107 221.417 228.984C220.54 229.861 219.553 230.3 218.456 230.3H155.946C154.63 230.3 153.533 229.861 152.656 228.984C151.779 228.107 151.34 227.01 151.34 225.694V156.275C151.34 154.959 150.792 153.862 149.695 152.985C148.818 152.108 147.831 151.669 146.734 151.669H26.649C25.333 151.669 24.2363 151.23 23.359 150.353C22.4817 149.476 22.043 148.379 22.043 147.063V89.488C22.043 88.172 22.4817 87.0753 23.359 86.198C24.2363 85.3207 25.333 84.882 26.649 84.882H146.734C147.831 84.882 148.818 84.4433 149.695 83.566C150.792 82.6887 151.34 81.592 151.34 80.276V76.328C151.34 75.012 150.792 73.9153 149.695 73.038C148.818 72.1607 147.831 71.722 146.734 71.722H4.606C3.29 71.722 2.19333 71.2833 1.316 70.406C0.438667 69.3093 0 68.2127 0 67.116V4.606C0 3.29001 0.438667 2.19334 1.316 1.316C2.19333 0.438667 3.29 0 4.606 0H150.024C159.675 0 168.887 1.86434 177.66 5.59301C186.653 9.10234 194.658 14.2567 201.677 21.056C208.476 27.8553 213.631 35.7514 217.14 44.744C220.869 53.7367 222.733 63.0584 222.733 72.709V80.276C222.733 81.592 223.172 82.6887 224.049 83.566C225.146 84.4433 226.242 84.882 227.339 84.882H240.17Z" fill="white"/>
<path d="M495.724 84.224C495.724 68.8707 491.886 54.8334 484.209 42.112C476.752 29.1713 466.553 18.9723 453.612 11.515C440.891 3.83834 426.963 0 411.829 0H333.917C320.538 0 308.255 3.29 297.069 9.87001C286.102 16.2307 277.329 25.004 270.749 36.19C264.388 47.1567 261.208 59.3297 261.208 72.709C261.208 85.869 264.388 98.042 270.749 109.228C277.329 120.195 286.212 128.968 297.398 135.548C308.584 141.909 320.757 145.089 333.917 145.089H412.487C413.803 145.089 414.9 145.528 415.777 146.405C416.654 147.282 417.093 148.379 417.093 149.695V153.972C417.093 155.288 416.654 156.385 415.777 157.262C414.9 158.139 413.803 158.578 412.487 158.578H267.459C266.362 158.578 265.266 159.017 264.169 159.894C263.292 160.771 262.853 161.868 262.853 163.184V225.694C262.853 227.01 263.292 228.107 264.169 228.984C265.266 229.861 266.362 230.3 267.459 230.3H411.829C423.015 230.3 433.653 228.216 443.742 224.049C454.051 219.662 463.153 213.521 471.049 205.625C478.945 197.729 484.977 188.627 489.144 178.318C493.531 168.009 495.724 157.262 495.724 146.076V84.224ZM340.168 78.302C340.168 76.5473 340.826 75.012 342.142 73.696C343.458 72.38 344.993 71.722 346.748 71.722H410.842C412.597 71.722 414.132 72.38 415.448 73.696C416.983 75.012 417.751 76.5473 417.751 78.302C417.751 80.0567 416.983 81.592 415.448 82.908C414.132 84.224 412.597 84.882 410.842 84.882H346.748C344.993 84.882 343.458 84.224 342.142 82.908C340.826 81.592 340.168 80.0567 340.168 78.302Z" fill="white"/>
</svg>
