<svg width="1261" height="3746" viewBox="0 0 1261 3746" fill="none" xmlns="http://www.w3.org/2000/svg">
<path d="M171.362 1433L43.9102 1755.05C105.64 1779.48 172.984 1766.04 220.21 1725.85L186.348 1811.42C248.078 1835.85 315.421 1822.41 362.647 1782.23L328.785 1867.79C417.812 1903.02 518.514 1859.49 553.709 1770.56C588.904 1681.63 545.264 1580.97 456.237 1545.74L422.375 1631.3C415.439 1569.68 375.53 1513.8 313.8 1489.37L279.938 1574.93C273.001 1513.31 233.093 1457.43 171.362 1433Z" fill="black"/>
<path d="M171.362 3247L43.9102 3569.05C105.64 3593.48 172.984 3580.04 220.21 3539.85L186.348 3625.42C248.078 3649.85 315.421 3636.41 362.647 3596.23L328.785 3681.79C417.812 3717.02 518.514 3673.49 553.709 3584.56C588.904 3495.63 545.264 3394.97 456.237 3359.74L422.375 3445.3C415.439 3383.68 375.53 3327.8 313.8 3303.37L279.938 3388.93C273.001 3327.31 233.093 3271.43 171.362 3247Z" fill="black"/>
<path d="M1239.65 1619.51L1146.91 1849.5C1051.76 1676.03 809.993 1552.18 596.911 1640.5L763.735 1370.09L1239.65 1619.51Z" fill="black"/>
<path d="M1239.65 3433.51L1146.91 3663.5C1051.76 3490.03 809.993 3366.18 596.911 3454.5L763.735 3184.09L1239.65 3433.51Z" fill="black"/>
<path d="M158.925 316.544C103.136 475.902 187.096 650.313 346.454 706.102L548.484 129.015C389.125 73.2259 214.714 157.185 158.925 316.544Z" fill="black"/>
<path d="M158.925 2130.54C103.136 2289.9 187.096 2464.31 346.454 2520.1L548.484 1943.01C389.125 1887.23 214.714 1971.19 158.925 2130.54Z" fill="black"/>
<path d="M635.875 443.691L509.262 173.845C691.222 244.83 805.499 207.55 859.996 7.639e-06L1003.69 404.849L635.875 443.691Z" fill="black"/>
<path d="M635.875 2257.69L509.262 1987.84C691.222 2058.83 805.499 2021.55 859.996 1814L1003.69 2218.85L635.875 2257.69Z" fill="black"/>
<path d="M89.4989 954.724C13.795 1168.08 286.399 1322.56 483.01 1375.69L598.995 1105.43L89.4989 954.724Z" fill="black"/>
<path d="M89.4989 2768.72C13.795 2982.08 286.399 3136.56 483.01 3189.69L598.995 2919.43L89.4989 2768.72Z" fill="black"/>
<path d="M423.91 1397.74L1000.27 1082L1069.2 1207.81L1041.93 1191.75C991.787 1162.22 928.505 1196.88 926.402 1255.04L925.259 1286.66L897.99 1270.6C847.85 1241.07 784.568 1275.73 782.465 1333.89L781.321 1365.51L753.724 1349.29C703.611 1319.84 640.419 1354.45 638.264 1412.54L637.077 1444.53L609.48 1428.31C559.367 1398.86 496.174 1433.47 494.019 1491.56L492.832 1523.55L423.91 1397.74Z" fill="white"/>
<path d="M423.91 3211.74L1000.27 2896L1069.2 3021.81L1041.93 3005.75C991.787 2976.22 928.505 3010.88 926.402 3069.04L925.259 3100.66L897.99 3084.6C847.85 3055.07 784.568 3089.73 782.465 3147.89L781.321 3179.51L753.724 3163.29C703.611 3133.84 640.419 3168.45 638.264 3226.54L637.077 3258.53L609.48 3242.31C559.367 3212.86 496.174 3247.47 494.019 3305.56L492.832 3337.55L423.91 3211.74Z" fill="white"/>
<path d="M963.196 1050.75C831.657 992.484 789.583 913.862 798.373 802.901L649.786 873.166C565.075 913.225 549.767 1027.27 620.918 1088.25V1088.25C653.896 1116.52 698.861 1126.34 740.62 1114.4L963.196 1050.75Z" fill="black"/>
<path d="M963.196 2864.75C831.657 2806.48 789.583 2727.86 798.373 2616.9L649.786 2687.17C565.075 2727.23 549.767 2841.27 620.918 2902.25V2902.25C653.896 2930.52 698.861 2940.34 740.62 2928.4L963.196 2864.75Z" fill="black"/>
<path d="M578.237 393.537L1081.41 712L972.312 789.1C927.669 820.649 872.058 832.55 818.413 822.035L374.41 735L578.237 393.537Z" fill="black"/>
<path d="M578.237 2207.54L1081.41 2526L972.312 2603.1C927.669 2634.65 872.058 2646.55 818.413 2636.03L374.41 2549L578.237 2207.54Z" fill="black"/>
<path d="M1016.79 1646.58L1150.89 1614C1130.62 1686.13 1090.92 1751.31 1036.12 1802.42L1006.16 1679.09C984.046 1738.28 948.454 1791.69 902.025 1834.99L872.065 1711.67C849.948 1770.86 814.356 1824.27 767.926 1867.57L737.966 1744.25C715.849 1803.43 680.257 1856.84 633.828 1900.15L597.001 1748.56L1016.79 1646.58L1016.79 1646.58Z" fill="black"/>
<path d="M1016.79 3460.58L1150.89 3428C1130.62 3500.13 1090.92 3565.31 1036.12 3616.42L1006.16 3493.09C984.046 3552.28 948.454 3605.69 902.025 3648.99L872.065 3525.67C849.948 3584.86 814.356 3638.27 767.926 3681.57L737.966 3558.25C715.849 3617.43 680.257 3670.84 633.828 3714.15L597.001 3562.56L1016.79 3460.58L1016.79 3460.58Z" fill="black"/>
<path d="M105.062 775.277L1.99787 683.506C72.8578 659.155 149.046 654.739 222.245 670.74L137.848 765.523C199.107 750.054 263.28 748.953 325.306 762.512L240.911 857.293C302.17 841.824 366.343 840.723 428.369 854.282L343.974 949.063C405.233 933.594 469.406 932.493 531.432 946.052L427.692 1062.56L105.06 775.278L105.062 775.277Z" fill="black"/>
<path d="M105.062 2589.28L1.99787 2497.51C72.8578 2473.16 149.046 2468.74 222.245 2484.74L137.848 2579.52C199.107 2564.05 263.28 2562.95 325.306 2576.51L240.911 2671.29C302.17 2655.82 366.343 2654.72 428.369 2668.28L343.974 2763.06C405.233 2747.59 469.406 2746.49 531.432 2760.05L427.692 2876.56L105.06 2589.28L105.062 2589.28Z" fill="black"/>
</svg>
