<svg width="1261" height="1932" viewBox="0 0 1261 1932" fill="none" xmlns="http://www.w3.org/2000/svg">
<path d="M43.9102 1755.05C132.937 1790.28 233.639 1746.75 268.834 1657.82C304.029 1568.89 260.389 1468.23 171.362 1433L43.9102 1755.05Z" fill="black"/>
<path d="M186.348 1811.42C275.375 1846.65 376.076 1803.12 411.271 1714.19C446.466 1625.26 402.827 1524.6 313.8 1489.37L186.348 1811.42Z" fill="black"/>
<path d="M328.785 1867.79C417.812 1903.02 518.514 1859.49 553.709 1770.56C588.904 1681.63 545.264 1580.97 456.237 1545.74L328.785 1867.79Z" fill="black"/>
<path d="M1239.65 1619.51L1146.91 1849.5C1051.76 1676.03 809.992 1552.18 596.91 1640.5L763.734 1370.09L1239.65 1619.51Z" fill="black"/>
<path d="M158.925 316.544C103.136 475.902 187.096 650.313 346.454 706.102L548.484 129.015C389.125 73.226 214.714 157.186 158.925 316.544Z" fill="black"/>
<path d="M429.461 1064.62L313.565 960.195C384.566 936.26 460.779 932.29 533.882 948.72L429.461 1064.62Z" fill="black"/>
<path d="M328.884 973.088L212.988 868.667C283.989 844.732 360.202 840.762 433.306 857.192L328.884 973.088Z" fill="black"/>
<path d="M221.692 877.419L105.795 772.998C176.796 749.062 253.009 745.093 326.113 761.522L221.692 877.419Z" fill="black"/>
<path d="M117.807 783.82L1.91029 679.399C72.9116 655.463 149.124 651.494 222.228 667.924L117.807 783.82Z" fill="black"/>
<path d="M635.875 443.691L509.262 173.845C691.222 244.83 805.499 207.55 859.996 7.639e-06L1003.69 404.849L635.875 443.691Z" fill="black"/>
<path d="M89.4989 954.724C13.795 1168.08 286.399 1322.56 483.01 1375.69L598.995 1105.43L89.4989 954.724Z" fill="black"/>
<path d="M423.91 1397.74L1000.27 1082L1069.2 1207.81L1041.93 1191.75C991.787 1162.22 928.505 1196.88 926.402 1255.04L925.259 1286.66L897.99 1270.6C847.85 1241.07 784.568 1275.73 782.465 1333.89L781.321 1365.51L753.724 1349.29C703.611 1319.84 640.419 1354.45 638.264 1412.54L637.077 1444.53L609.48 1428.31C559.367 1398.86 496.174 1433.47 494.019 1491.56L492.832 1523.55L423.91 1397.74Z" fill="black"/>
<path d="M963.194 1050.75C831.655 992.484 789.581 913.862 798.371 802.901L649.784 873.166C565.073 913.225 549.765 1027.27 620.916 1088.25V1088.25C653.894 1116.52 698.859 1126.34 740.618 1114.4L963.194 1050.75Z" fill="black"/>
<path d="M578.237 393.537L1081.41 712L972.312 789.1C927.669 820.65 872.058 832.55 818.413 822.035L374.41 735L578.237 393.537Z" fill="black"/>
</svg>
