<svg width="3768" height="467" viewBox="0 0 3768 467" fill="none" xmlns="http://www.w3.org/2000/svg">
<path d="M471.5 467L0 467V224.946C55.3547 148.162 121.042 82.5804 192.919 30.9472L235.999 0V224.946C291.354 148.161 356.043 82.5804 427.92 30.9472L471 0L471.5 224.946C526.972 148.162 592.799 82.5804 664.828 30.9472L708 0V224.946C763.472 148.161 828.299 82.5804 900.328 30.9472L943.5 0V224.257C999.032 147.769 1062.9 82.4258 1134.94 30.9472L1178.25 0V224.946C1233.9 148.161 1298.93 82.5804 1371.19 30.9472L1414.5 0V224.946C1469.97 148.162 1534.3 82.5804 1606.33 30.9472L1649.5 0V224.946C1704.97 148.161 1769.8 82.5804 1841.83 30.9472L1885 0V224.946C1940.47 148.162 2004.8 82.5804 2076.83 30.9472L2120 0V224.946C2175.47 148.161 2240.3 82.5804 2312.33 30.9472L2355.5 0V224.946C2411.15 148.162 2475.18 82.5804 2547.44 30.9472L2590.75 0V224.946C2646.4 148.161 2711.43 82.5804 2783.69 30.9472L2827 0V224.946C2882.47 148.162 2946.8 82.5804 3018.83 30.9472L3062 0V224.946C3117.47 148.161 3182.3 82.5804 3254.33 30.9472L3297.5 0V224.946C3352.97 148.162 3417.3 82.5804 3489.33 30.9472L3532.5 0V224.946C3587.97 148.161 3652.8 82.5804 3724.83 30.9472L3768 0V467H471.5Z" fill="#FD4E2B"/>
</svg>
