<svg width="inherit" height="inherit" viewBox="0 0 497 230" fill="none" xmlns="http://www.w3.org/2000/svg">
<path d="M71.2849 152.457C71.2849 150.924 71.7229 149.719 72.5989 148.843C73.6939 147.748 75.0079 147.2 76.5409 147.2H171.149C179.033 147.2 186.698 145.667 194.145 142.6C201.591 139.533 208.051 135.152 213.526 129.457C219.001 123.981 223.272 117.519 226.338 110.071C229.404 102.624 230.937 94.9572 230.937 87.0714V60.1286C230.937 52.2429 229.404 44.5762 226.338 37.1286C223.272 29.681 219.001 23.219 213.526 17.7429C207.832 12.0476 201.262 7.66667 193.816 4.6C186.589 1.53334 178.924 0 170.821 0C139.285 0.219045 108.515 0.328566 78.5119 0.328566C48.7278 0.328566 25.2946 0.328566 8.21254 0.328566C6.89854 0.328566 5.80353 0.766669 4.92753 1.64286C4.05152 2.51905 3.61352 3.61429 3.61352 4.92857V67.0286C3.61352 68.1238 4.05152 69.219 4.92753 70.3143C5.80353 71.1905 6.89854 71.6286 8.21254 71.6286L154.724 71.3C156.476 71.3 157.79 71.8476 158.666 72.9429C159.761 74.0381 160.309 75.2429 160.309 76.5572C160.309 77.8714 159.761 79.0762 158.666 80.1714C157.79 81.2667 156.476 81.8143 154.724 81.8143H60.1158C52.0128 81.8143 44.2382 83.3476 36.7922 86.4143C29.5652 89.481 23.1046 93.8619 17.4106 99.5571C11.7166 105.252 7.33654 111.714 4.27052 118.943C1.42351 126.171 0 133.838 0 141.943V225.4C0 226.714 0.438002 227.81 1.31401 228.686C2.19001 229.562 3.28502 230 4.59902 230H226.338C227.652 230 228.747 229.562 229.623 228.686C230.499 227.81 230.937 226.714 230.937 225.4V162.971C230.937 161.657 230.499 160.562 229.623 159.686C228.747 158.81 227.652 158.371 226.338 158.371H76.5409C75.0079 158.371 73.6939 157.824 72.5989 156.729C71.7229 155.633 71.2849 154.429 71.2849 153.114V152.457Z" fill="white"/>
<path d="M247.339 67.0286C247.339 68.1238 247.777 69.219 248.653 70.3143C249.529 71.1905 250.624 71.6286 251.938 71.6286H406.005C408.414 71.6286 410.276 72.2857 411.59 73.6C412.904 74.9143 413.561 76.4476 413.561 78.2C413.561 80.1714 412.904 81.8143 411.59 83.1286C410.276 84.4429 408.414 85.1 406.005 85.1H251.938C250.624 85.1 249.529 85.5381 248.653 86.4143C247.777 87.2905 247.339 88.3857 247.339 89.7V140.3C247.339 141.614 247.777 142.71 248.653 143.586C249.529 144.462 250.624 144.9 251.938 144.9H406.005C408.414 144.9 410.276 145.557 411.59 146.871C412.904 148.186 413.561 149.829 413.561 151.8C413.561 153.552 412.904 155.195 411.59 156.729C410.276 158.043 408.414 158.7 406.005 158.7H251.938C250.624 158.7 249.529 159.138 248.653 160.014C247.777 160.89 247.339 161.986 247.339 163.3V225.4C247.339 226.714 247.777 227.81 248.653 228.686C249.529 229.562 250.624 230 251.938 230H423.087C436.446 230 448.71 226.714 459.879 220.143C471.267 213.571 480.246 204.7 486.816 193.529C493.605 182.138 497 169.871 497 156.729C497 139.862 491.525 124.529 480.575 110.729C487.145 99.3381 490.43 87.0714 490.43 73.9286C490.43 60.5667 487.035 48.3 480.246 37.1286C473.676 25.7381 464.697 16.7571 453.309 10.1857C441.921 3.39524 429.548 0 416.189 0H251.938C250.624 0 249.529 0.547624 248.653 1.64286C247.777 2.51905 247.339 3.50477 247.339 4.6V67.0286Z" fill="white"/>
</svg>
