<svg width="493px" height="inherit" viewBox="0 0 493 231" fill="none" xmlns="http://www.w3.org/2000/svg">
<path d="M71.393 79.002C71.393 80.318 71.8317 81.4146 72.709 82.292C73.5863 83.1693 74.683 83.608 75.999 83.608H171.738C179.634 83.608 187.311 85.1433 194.768 88.214C202.225 91.2846 208.696 95.5616 214.179 101.045C219.662 106.748 223.939 113.328 227.01 120.785C230.081 128.242 231.616 136.029 231.616 144.144V170.793C231.616 178.908 230.081 186.695 227.01 194.152C224.159 201.39 219.882 207.86 214.179 213.563C208.696 219.046 202.225 223.323 194.768 226.394C187.311 229.465 179.634 231 171.738 231H5.264C4.16733 231 3.07067 230.561 1.974 229.684C1.09667 228.587 0.658 227.491 0.658 226.394V164.213C0.658 162.897 1.09667 161.8 1.974 160.923C3.07067 160.046 4.16733 159.607 5.264 159.607H155.946C157.043 159.607 158.03 159.168 158.907 158.291C160.004 157.414 160.552 156.317 160.552 155.001V151.711C160.552 150.395 160.004 149.298 158.907 148.421C158.03 147.544 157.043 147.105 155.946 147.105H7.896C6.14133 147.105 4.277 146.337 2.303 144.802C0.767667 142.828 0 140.964 0 139.209V5.30595C0 3.98996 0.438667 2.89329 1.316 2.01595C2.41267 1.13862 3.50933 0.699951 4.606 0.699951H219.772C221.088 0.699951 222.185 1.13862 223.062 2.01595C223.939 2.89329 224.378 3.98996 224.378 5.30595V67.816C224.378 69.132 223.939 70.2286 223.062 71.106C222.185 71.9833 221.088 72.422 219.772 72.422H75.999C74.683 72.422 73.5863 72.8606 72.709 73.738C71.8317 74.6153 71.393 75.712 71.393 77.028V79.002Z" fill="white"/>
<path d="M488.205 85.582C489.521 85.582 490.618 86.0206 491.495 86.898C492.373 87.7753 492.811 88.872 492.811 90.188V147.763C492.811 149.079 492.373 150.176 491.495 151.053C490.618 151.93 489.521 152.369 488.205 152.369H475.374C474.277 152.369 473.181 152.808 472.084 153.685C471.207 154.562 470.768 155.659 470.768 156.975V226.394C470.768 227.71 470.329 228.807 469.452 229.684C468.575 230.561 467.588 231 466.491 231H403.981C402.665 231 401.568 230.561 400.691 229.684C399.814 228.807 399.375 227.71 399.375 226.394V156.975C399.375 155.659 398.827 154.562 397.73 153.685C396.853 152.808 395.866 152.369 394.769 152.369H274.684C273.368 152.369 272.271 151.93 271.394 151.053C270.517 150.176 270.078 149.079 270.078 147.763V90.188C270.078 88.872 270.517 87.7753 271.394 86.898C272.271 86.0206 273.368 85.582 274.684 85.582H394.769C395.866 85.582 396.853 85.1433 397.73 84.266C398.827 83.3886 399.375 82.292 399.375 80.976V77.028C399.375 75.712 398.827 74.6153 397.73 73.738C396.853 72.8606 395.866 72.422 394.769 72.422H252.641C251.325 72.422 250.228 71.9833 249.351 71.106C248.474 70.0093 248.035 68.9126 248.035 67.816V5.30595C248.035 3.98996 248.474 2.89329 249.351 2.01595C250.228 1.13862 251.325 0.699951 252.641 0.699951H398.059C407.71 0.699951 416.922 2.56429 425.695 6.29296C434.688 9.80229 442.693 14.9566 449.712 21.756C456.511 28.5553 461.666 36.4513 465.175 45.444C468.904 54.4366 470.768 63.7583 470.768 73.409V80.976C470.768 82.292 471.207 83.3886 472.084 84.266C473.181 85.1433 474.277 85.582 475.374 85.582H488.205Z" fill="white"/>
</svg>
