<svg width="475px" height="inherit" viewBox="0 0 475 231" fill="none" xmlns="http://www.w3.org/2000/svg">
<path d="M0 5.30595C0 3.98996 0.438667 2.89329 1.316 2.01595C2.19333 1.13862 3.29 0.699951 4.606 0.699951H100.674C101.99 0.699951 103.087 1.13862 103.964 2.01595C104.841 2.89329 105.28 3.98996 105.28 5.30595V226.394C105.28 227.71 104.841 228.807 103.964 229.684C103.087 230.561 101.99 231 100.674 231H39.151C37.835 231 36.7383 230.561 35.861 229.684C34.9837 228.807 34.545 227.71 34.545 226.394V76.041C34.545 74.9443 34.1063 73.9573 33.229 73.08C32.3517 71.9833 31.255 71.435 29.939 71.435H4.606C3.29 71.435 2.19333 70.9963 1.316 70.119C0.438667 69.2416 0 68.145 0 66.829V5.30595Z" fill="white"/>
<path d="M121.769 5.30595C121.769 3.98996 122.207 2.89329 123.085 2.01595C123.962 1.13862 125.059 0.699951 126.375 0.699951H222.443C223.759 0.699951 224.855 1.13862 225.733 2.01595C226.61 2.89329 227.049 3.98996 227.049 5.30595V226.394C227.049 227.71 226.61 228.807 225.733 229.684C224.855 230.561 223.759 231 222.443 231H160.92C159.604 231 158.507 230.561 157.63 229.684C156.752 228.807 156.314 227.71 156.314 226.394V76.041C156.314 74.9443 155.875 73.9573 154.998 73.08C154.12 71.9833 153.024 71.435 151.708 71.435H126.375C125.059 71.435 123.962 70.9963 123.085 70.119C122.207 69.2416 121.769 68.145 121.769 66.829V5.30595Z" fill="white"/>
<path d="M314.93 153.356C314.93 151.821 315.369 150.614 316.246 149.737C317.343 148.64 318.659 148.092 320.194 148.092H414.946C422.842 148.092 430.519 146.557 437.976 143.486C445.433 140.415 451.904 136.029 457.387 130.326C462.87 124.843 467.147 118.372 470.218 110.915C473.289 103.458 474.824 95.781 474.824 87.885V60.907C474.824 53.011 473.289 45.3343 470.218 37.877C467.147 30.4196 462.87 23.9493 457.387 18.466C451.684 12.7633 445.104 8.37662 437.647 5.30595C430.409 2.23529 422.732 0.699951 414.617 0.699951C383.033 0.919282 352.217 1.02895 322.168 1.02895C292.339 1.02895 268.87 1.02895 251.762 1.02895C250.446 1.02895 249.349 1.46762 248.472 2.34496C247.595 3.22229 247.156 4.31895 247.156 5.63495V67.816C247.156 68.9126 247.595 70.0093 248.472 71.106C249.349 71.9833 250.446 72.422 251.762 72.422L398.496 72.093C400.251 72.093 401.567 72.6413 402.444 73.738C403.541 74.8346 404.089 76.041 404.089 77.357C404.089 78.673 403.541 79.8793 402.444 80.976C401.567 82.0726 400.251 82.621 398.496 82.621H303.744C295.629 82.621 287.842 84.1563 280.385 87.227C273.147 90.2976 266.677 94.6843 260.974 100.387C255.271 106.09 250.885 112.56 247.814 119.798C244.963 127.036 243.537 134.713 243.537 142.828V226.394C243.537 227.71 243.976 228.807 244.853 229.684C245.73 230.561 246.827 231 248.143 231H470.218C471.534 231 472.631 230.561 473.508 229.684C474.385 228.807 474.824 227.71 474.824 226.394V163.884C474.824 162.568 474.385 161.471 473.508 160.594C472.631 159.717 471.534 159.278 470.218 159.278H320.194C318.659 159.278 317.343 158.73 316.246 157.633C315.369 156.536 314.93 155.33 314.93 154.014V153.356Z" fill="white"/>
</svg>
