<svg width="387px" height="inherit" viewBox="0 0 387 231" fill="none" xmlns="http://www.w3.org/2000/svg">
<path d="M0 146.776C0 162.129 3.72867 176.276 11.186 189.217C18.8627 201.938 29.1713 212.137 42.112 219.814C55.0527 227.271 69.09 231 84.224 231H192.136C205.296 231 217.359 227.71 228.326 221.13C239.512 214.55 248.285 205.777 254.646 194.81C261.226 183.624 264.516 171.451 264.516 158.291C264.516 145.131 261.226 133.068 254.646 122.101C248.285 110.915 239.512 102.142 228.326 95.781C217.359 89.201 205.296 85.911 192.136 85.911H83.566C82.4693 85.911 81.3727 85.3626 80.276 84.266C79.3987 83.608 78.96 82.5113 78.96 80.976V77.028C78.96 75.712 79.3987 74.6153 80.276 73.738C81.1533 72.8606 82.25 72.422 83.566 72.422H254.975C256.291 72.422 257.388 71.9833 258.265 71.106C259.142 70.0093 259.581 68.9126 259.581 67.816V5.30595C259.581 3.98996 259.142 2.89329 258.265 2.01595C257.388 1.13862 256.291 0.699951 254.975 0.699951H84.224C69.09 0.699951 55.0527 4.53829 42.112 12.215C29.1713 19.6723 18.8627 29.8713 11.186 42.812C3.72867 55.5333 0 69.5706 0 84.924V146.776ZM190.491 152.698C190.491 154.453 189.833 155.988 188.517 157.304C187.201 158.62 185.666 159.278 183.911 159.278H83.566C82.25 159.278 81.1533 158.839 80.276 157.962C79.3987 157.304 78.96 156.207 78.96 154.672V150.724C78.96 149.408 79.3987 148.311 80.276 147.434C81.1533 146.557 82.25 146.118 83.566 146.118H183.911C185.666 146.118 187.201 146.776 188.517 148.092C189.833 149.408 190.491 150.943 190.491 152.698Z" fill="white"/>
<path d="M280.807 5.30595C280.807 3.98996 281.245 2.89329 282.123 2.01595C283 1.13862 284.097 0.699951 285.413 0.699951H381.481C382.797 0.699951 383.893 1.13862 384.771 2.01595C385.648 2.89329 386.087 3.98996 386.087 5.30595V226.394C386.087 227.71 385.648 228.807 384.771 229.684C383.893 230.561 382.797 231 381.481 231H319.958C318.642 231 317.545 230.561 316.668 229.684C315.79 228.807 315.352 227.71 315.352 226.394V76.041C315.352 74.9443 314.913 73.9573 314.036 73.08C313.158 71.9833 312.062 71.435 310.746 71.435H285.413C284.097 71.435 283 70.9963 282.123 70.119C281.245 69.2416 280.807 68.145 280.807 66.829V5.30595Z" fill="white"/>
</svg>
