<svg width="496px" height="inherit" viewBox="0 0 496 231" fill="none" xmlns="http://www.w3.org/2000/svg">
<path d="M0 146.776C0 162.129 3.72867 176.276 11.186 189.217C18.8627 201.938 29.1713 212.137 42.112 219.814C55.0527 227.271 69.09 231 84.224 231H185.136C198.296 231 210.359 227.71 221.326 221.13C232.512 214.55 241.285 205.777 247.646 194.81C254.226 183.624 257.516 171.451 257.516 158.291C257.516 145.131 254.226 133.068 247.646 122.101C241.285 110.915 232.512 102.142 221.326 95.781C210.359 89.201 198.296 85.911 185.136 85.911H83.566C82.4693 85.911 81.3727 85.3626 80.276 84.266C79.3987 83.608 78.96 82.5113 78.96 80.976V77.028C78.96 75.712 79.3987 74.6153 80.276 73.738C81.1533 72.8606 82.25 72.422 83.566 72.422H247.975C249.291 72.422 250.388 71.9833 251.265 71.106C252.142 70.0093 252.581 68.9126 252.581 67.816V5.30595C252.581 3.98996 252.142 2.89329 251.265 2.01595C250.388 1.13862 249.291 0.699951 247.975 0.699951H84.224C69.09 0.699951 55.0527 4.53829 42.112 12.215C29.1713 19.6723 18.8627 29.8713 11.186 42.812C3.72867 55.5333 0 69.5706 0 84.924V146.776ZM183.491 152.698C183.491 154.453 182.833 155.988 181.517 157.304C180.201 158.62 178.666 159.278 176.911 159.278H83.566C82.25 159.278 81.1533 158.839 80.276 157.962C79.3987 157.304 78.96 156.207 78.96 154.672V150.724C78.96 149.408 79.3987 148.311 80.276 147.434C81.1533 146.557 82.25 146.118 83.566 146.118H176.911C178.666 146.118 180.201 146.776 181.517 148.092C182.833 149.408 183.491 150.943 183.491 152.698Z" fill="white"/>
<path d="M341.987 79.002C341.987 80.318 342.425 81.4146 343.303 82.292C344.18 83.1693 345.277 83.608 346.593 83.608H435.332C443.228 83.608 450.904 85.1433 458.362 88.214C465.819 91.2846 472.289 95.5616 477.773 101.045C483.256 106.748 487.533 113.328 490.604 120.785C493.674 128.242 495.21 136.029 495.21 144.144V170.793C495.21 178.908 493.674 186.695 490.604 194.152C487.752 201.39 483.475 207.86 477.773 213.563C472.289 219.046 465.819 223.323 458.362 226.394C450.904 229.465 443.228 231 435.332 231H275.858C274.761 231 273.664 230.561 272.568 229.684C271.69 228.587 271.252 227.491 271.252 226.394V164.213C271.252 162.897 271.69 161.8 272.568 160.923C273.664 160.046 274.761 159.607 275.858 159.607H419.54C420.636 159.607 421.623 159.168 422.501 158.291C423.597 157.414 424.146 156.317 424.146 155.001V151.711C424.146 150.395 423.597 149.298 422.501 148.421C421.623 147.544 420.636 147.105 419.54 147.105H278.49C276.735 147.105 274.871 146.337 272.897 144.802C271.361 142.828 270.594 140.964 270.594 139.209V5.30595C270.594 3.98996 271.032 2.89329 271.91 2.01595C273.006 1.13862 274.103 0.699951 275.2 0.699951H483.366C484.682 0.699951 485.778 1.13862 486.656 2.01595C487.533 2.89329 487.972 3.98996 487.972 5.30595V67.816C487.972 69.132 487.533 70.2286 486.656 71.106C485.778 71.9833 484.682 72.422 483.366 72.422H346.593C345.277 72.422 344.18 72.8606 343.303 73.738C342.425 74.6153 341.987 75.712 341.987 77.028V79.002Z" fill="white"/>
</svg>
