<svg width="493" height="inherit" viewBox="0 0 493 231" fill="none" xmlns="http://www.w3.org/2000/svg">
<path d="M239.512 85.54C240.828 85.54 241.925 86.0883 242.802 87.185C243.679 88.0623 244.118 89.0493 244.118 90.146V146.076C244.118 147.392 243.679 148.489 242.802 149.366C241.925 150.243 240.828 150.682 239.512 150.682H228.326C227.01 150.682 225.913 151.23 225.036 152.327C224.159 153.204 223.72 154.191 223.72 155.288V225.694C223.72 227.01 223.172 228.107 222.075 228.984C221.198 229.861 220.211 230.3 219.114 230.3H157.262C155.946 230.3 154.849 229.861 153.972 228.984C153.095 228.107 152.656 227.01 152.656 225.694V155.288C152.656 154.191 152.217 153.204 151.34 152.327C150.463 151.23 149.366 150.682 148.05 150.682H47.047C38.2737 150.682 30.268 148.489 23.03 144.102C15.792 139.715 10.0893 133.903 5.922 126.665C1.974 119.208 0 111.421 0 103.306C0 96.2873 1.86433 89.0493 5.593 81.592L47.047 2.63201C48.1437 0.877341 49.5693 0 51.324 0H118.769C120.524 0 121.84 0.767669 122.717 2.30301C123.594 3.83834 123.594 5.37367 122.717 6.90901L84.553 78.96C84.1143 79.8374 83.895 80.4953 83.895 80.934C83.895 82.0307 84.3337 83.1273 85.211 84.224C86.3077 85.1013 87.514 85.54 88.83 85.54H148.05C149.366 85.54 150.463 85.1013 151.34 84.224C152.217 83.3467 152.656 82.25 152.656 80.934V4.606C152.656 3.29001 153.095 2.19334 153.972 1.316C154.849 0.438667 155.946 0 157.262 0H219.114C220.211 0 221.198 0.438667 222.075 1.316C223.172 2.19334 223.72 3.29001 223.72 4.606V80.934C223.72 82.25 224.159 83.3467 225.036 84.224C225.913 85.1013 227.01 85.54 228.326 85.54H239.512Z" fill="white"/>
<path d="M331.958 78.302C331.958 79.618 332.397 80.7147 333.274 81.592C334.152 82.4693 335.248 82.908 336.564 82.908H432.303C440.199 82.908 447.876 84.4433 455.333 87.514C462.791 90.5847 469.261 94.8617 474.744 100.345C480.228 106.048 484.505 112.628 487.575 120.085C490.646 127.542 492.181 135.329 492.181 143.444V170.093C492.181 178.208 490.646 185.995 487.575 193.452C484.724 200.69 480.447 207.16 474.744 212.863C469.261 218.346 462.791 222.623 455.333 225.694C447.876 228.765 440.199 230.3 432.303 230.3H265.829C264.733 230.3 263.636 229.861 262.539 228.984C261.662 227.887 261.223 226.791 261.223 225.694V163.513C261.223 162.197 261.662 161.1 262.539 160.223C263.636 159.346 264.733 158.907 265.829 158.907H416.511C417.608 158.907 418.595 158.468 419.472 157.591C420.569 156.714 421.117 155.617 421.117 154.301V151.011C421.117 149.695 420.569 148.598 419.472 147.721C418.595 146.844 417.608 146.405 416.511 146.405H268.461C266.707 146.405 264.842 145.637 262.868 144.102C261.333 142.128 260.565 140.264 260.565 138.509V4.606C260.565 3.29001 261.004 2.19334 261.881 1.316C262.978 0.438667 264.075 0 265.171 0H480.337C481.653 0 482.75 0.438667 483.627 1.316C484.505 2.19334 484.943 3.29001 484.943 4.606V67.116C484.943 68.432 484.505 69.5287 483.627 70.406C482.75 71.2833 481.653 71.722 480.337 71.722H336.564C335.248 71.722 334.152 72.1607 333.274 73.038C332.397 73.9153 331.958 75.012 331.958 76.328V78.302Z" fill="white"/>
</svg>
