<svg width="354px" height="inherit" viewBox="0 0 354 231" fill="none" xmlns="http://www.w3.org/2000/svg">
<path d="M0 5.30595C0 3.98996 0.438667 2.89329 1.316 2.01595C2.19333 1.13862 3.29 0.699951 4.606 0.699951H100.674C101.99 0.699951 103.087 1.13862 103.964 2.01595C104.841 2.89329 105.28 3.98996 105.28 5.30595V226.394C105.28 227.71 104.841 228.807 103.964 229.684C103.087 230.561 101.99 231 100.674 231H39.151C37.835 231 36.7383 230.561 35.861 229.684C34.9837 228.807 34.545 227.71 34.545 226.394V76.041C34.545 74.9443 34.1063 73.9573 33.229 73.08C32.3517 71.9833 31.255 71.435 29.939 71.435H4.606C3.29 71.435 2.19333 70.9963 1.316 70.119C0.438667 69.2416 0 68.145 0 66.829V5.30595Z" fill="white"/>
<path d="M193.162 79.002C193.162 80.318 193.6 81.4146 194.478 82.292C195.355 83.1693 196.452 83.608 197.768 83.608H293.507C301.403 83.608 309.079 85.1433 316.537 88.214C323.994 91.2846 330.464 95.5616 335.948 101.045C341.431 106.748 345.708 113.328 348.779 120.785C351.849 128.242 353.385 136.029 353.385 144.144V170.793C353.385 178.908 351.849 186.695 348.779 194.152C345.927 201.39 341.65 207.86 335.948 213.563C330.464 219.046 323.994 223.323 316.537 226.394C309.079 229.465 301.403 231 293.507 231H127.033C125.936 231 124.839 230.561 123.743 229.684C122.865 228.587 122.427 227.491 122.427 226.394V164.213C122.427 162.897 122.865 161.8 123.743 160.923C124.839 160.046 125.936 159.607 127.033 159.607H277.715C278.811 159.607 279.798 159.168 280.676 158.291C281.772 157.414 282.321 156.317 282.321 155.001V151.711C282.321 150.395 281.772 149.298 280.676 148.421C279.798 147.544 278.811 147.105 277.715 147.105H129.665C127.91 147.105 126.046 146.337 124.072 144.802C122.536 142.828 121.769 140.964 121.769 139.209V5.30595C121.769 3.98996 122.207 2.89329 123.085 2.01595C124.181 1.13862 125.278 0.699951 126.375 0.699951H341.541C342.857 0.699951 343.953 1.13862 344.831 2.01595C345.708 2.89329 346.147 3.98996 346.147 5.30595V67.816C346.147 69.132 345.708 70.2286 344.831 71.106C343.953 71.9833 342.857 72.422 341.541 72.422H197.768C196.452 72.422 195.355 72.8606 194.478 73.738C193.6 74.6153 193.162 75.712 193.162 77.028V79.002Z" fill="white"/>
</svg>
